G04 Layer_Color=16711935*
%FSLAX25Y25*%
%MOIN*%
G70*
G01*
G75*
%ADD41R,0.07493X0.05131*%
%ADD46C,0.06115*%
%ADD47R,0.06115X0.06115*%
%ADD48C,0.08674*%
%ADD49R,0.06706X0.06706*%
%ADD50C,0.06706*%
%ADD51R,0.06706X0.06706*%
%ADD52R,0.08674X0.08674*%
%ADD53C,0.07099*%
%ADD54R,0.07099X0.07099*%
%ADD55C,0.16548*%
%ADD56O,0.06312X0.08674*%
%ADD57R,0.06312X0.08674*%
%ADD58O,0.06312X0.08674*%
%ADD59C,0.00800*%
%ADD60R,0.08674X0.06706*%
%ADD61R,0.05131X0.07493*%
%ADD62R,0.03162X0.05328*%
%ADD63R,0.06312X0.13792*%
%ADD64R,0.04540X0.04737*%
D41*
X236221Y160827D02*
D03*
Y150197D02*
D03*
X216535D02*
D03*
Y160827D02*
D03*
X226378D02*
D03*
Y150197D02*
D03*
X29528Y48622D02*
D03*
Y37992D02*
D03*
X42323Y241732D02*
D03*
Y252362D02*
D03*
X69882Y249606D02*
D03*
Y260236D02*
D03*
X120079Y30413D02*
D03*
Y41043D02*
D03*
D46*
X250000Y37402D02*
D03*
D47*
X250000Y57087D02*
D03*
D48*
X92520Y41339D02*
D03*
D49*
X132874Y147638D02*
D03*
X88583Y358268D02*
D03*
Y179134D02*
D03*
X236221Y169291D02*
D03*
X92520Y53150D02*
D03*
D50*
X76024Y54370D02*
D03*
X66024D02*
D03*
X56024D02*
D03*
X46024D02*
D03*
X76024Y24370D02*
D03*
X66024D02*
D03*
X56024D02*
D03*
X98583Y358268D02*
D03*
X118583D02*
D03*
X128583D02*
D03*
X138583D02*
D03*
X148583D02*
D03*
X158583D02*
D03*
X168583D02*
D03*
X178583D02*
D03*
X108583D02*
D03*
X98583Y179134D02*
D03*
X118583D02*
D03*
X128583D02*
D03*
X138583D02*
D03*
X148583D02*
D03*
X158583D02*
D03*
X168583D02*
D03*
X178583D02*
D03*
X108583D02*
D03*
X226220Y169291D02*
D03*
X216220D02*
D03*
X206221D02*
D03*
X196221D02*
D03*
D51*
X46024Y24370D02*
D03*
D52*
X275590Y148622D02*
D03*
D53*
X253937Y79921D02*
D03*
X233937D02*
D03*
X223937D02*
D03*
X213937D02*
D03*
X203937D02*
D03*
X193937D02*
D03*
X183937D02*
D03*
Y129921D02*
D03*
X193937D02*
D03*
X203937D02*
D03*
X213937D02*
D03*
X223937D02*
D03*
X233937D02*
D03*
X243937D02*
D03*
X253937D02*
D03*
X175197Y88583D02*
D03*
X165354Y110236D02*
D03*
X246063Y160433D02*
D03*
X31496Y145669D02*
D03*
X208661Y240158D02*
D03*
Y322835D02*
D03*
X59055D02*
D03*
X53150Y246063D02*
D03*
X96457Y149606D02*
D03*
Y157480D02*
D03*
X102362Y169291D02*
D03*
X118110D02*
D03*
X265748Y358268D02*
D03*
X253937Y350394D02*
D03*
X39370Y88583D02*
D03*
X173228Y330709D02*
D03*
X158465Y167323D02*
D03*
X148622Y161417D02*
D03*
X179134Y158465D02*
D03*
X157480Y48228D02*
D03*
X130905Y36417D02*
D03*
D54*
X243937Y79921D02*
D03*
D55*
X305118Y31496D02*
D03*
Y169291D02*
D03*
X9843D02*
D03*
Y31496D02*
D03*
X305118Y210630D02*
D03*
Y348425D02*
D03*
X9843D02*
D03*
Y210630D02*
D03*
D56*
X232795Y231535D02*
D03*
X222795D02*
D03*
X52795D02*
D03*
X42795D02*
D03*
Y341535D02*
D03*
X52795D02*
D03*
X62795D02*
D03*
X72795D02*
D03*
X82795D02*
D03*
X92795D02*
D03*
X102795D02*
D03*
X112795D02*
D03*
X122795D02*
D03*
X132795D02*
D03*
X232795D02*
D03*
X222795D02*
D03*
X212795D02*
D03*
X202795D02*
D03*
X192795D02*
D03*
X182795D02*
D03*
X172795D02*
D03*
X162795D02*
D03*
X152795D02*
D03*
X142795D02*
D03*
D57*
X155512Y129921D02*
D03*
D58*
X145512D02*
D03*
X135512D02*
D03*
X125512D02*
D03*
X115512D02*
D03*
X105512D02*
D03*
X95512D02*
D03*
X85512D02*
D03*
X75512D02*
D03*
X65512D02*
D03*
X55512D02*
D03*
X45512D02*
D03*
X35512D02*
D03*
X25512D02*
D03*
X15512D02*
D03*
Y69921D02*
D03*
X25512D02*
D03*
X35512D02*
D03*
X45512D02*
D03*
X55512D02*
D03*
X65512D02*
D03*
X75512D02*
D03*
X85512D02*
D03*
X95512D02*
D03*
X105512D02*
D03*
X115512D02*
D03*
X125512D02*
D03*
X135512D02*
D03*
X145512D02*
D03*
X155512D02*
D03*
D59*
X165512Y129921D02*
D03*
Y69921D02*
D03*
X5512Y129921D02*
D03*
Y69921D02*
D03*
D60*
X275590Y129921D02*
D03*
Y110236D02*
D03*
Y51181D02*
D03*
Y70866D02*
D03*
Y90551D02*
D03*
D61*
X254528Y66929D02*
D03*
X265158D02*
D03*
X217126Y181102D02*
D03*
X227756D02*
D03*
D62*
X65945Y231791D02*
D03*
X69685Y240650D02*
D03*
X62205D02*
D03*
D63*
X142126Y55118D02*
D03*
X157087D02*
D03*
D64*
X106299Y39862D02*
D03*
X102559Y31004D02*
D03*
X110039Y31004D02*
D03*
M02*
