G04 Layer_Color=65535*
%FSLAX25Y25*%
%MOIN*%
G70*
G01*
G75*
%ADD36C,0.00787*%
%ADD37C,0.00984*%
%ADD38C,0.02362*%
%ADD39C,0.01000*%
%ADD40C,0.00394*%
D36*
X253274Y40083D02*
X254150Y40552D01*
X254959Y41128D01*
X255689Y41800D01*
X256329Y42560D01*
X256868Y43393D01*
X257298Y44289D01*
X257612Y45230D01*
X257805Y46205D01*
X257874Y47195D01*
X257817Y48186D01*
X257637Y49163D01*
X257334Y50109D01*
X256915Y51009D01*
X256387Y51850D01*
X255756Y52617D01*
X255034Y53298D01*
X254232Y53884D01*
X245768Y53884D02*
X244966Y53298D01*
X244244Y52617D01*
X243613Y51850D01*
X243084Y51009D01*
X242666Y50109D01*
X242363Y49163D01*
X242183Y48186D01*
X242126Y47195D01*
X242195Y46205D01*
X242388Y45230D01*
X242702Y44289D01*
X243132Y43393D01*
X243671Y42560D01*
X244311Y41800D01*
X245041Y41128D01*
X245850Y40552D01*
X246726Y40083D01*
X40748Y36870D02*
X41705Y37060D01*
X42516Y37602D01*
X43058Y38413D01*
X43248Y39370D01*
X43058Y40327D01*
X42516Y41138D01*
X41705Y41680D01*
X40748Y41870D01*
X127362Y153150D02*
X138386D01*
X138386Y142126D02*
Y153150D01*
X127362Y142126D02*
X138386D01*
X127362Y142126D02*
Y153150D01*
X81299Y28937D02*
Y49803D01*
X40748Y41870D02*
Y49803D01*
Y28937D02*
Y36870D01*
Y49803D02*
X81299D01*
X40748Y28937D02*
X81299D01*
X250984Y337008D02*
Y340158D01*
X256890Y337008D02*
Y340158D01*
X250984Y297638D02*
Y300787D01*
X256890Y297638D02*
Y300787D01*
X250984Y258268D02*
Y261417D01*
X256890Y258268D02*
Y261417D01*
X183583Y353268D02*
Y363268D01*
X83583Y353268D02*
X183583D01*
X83583D02*
Y363268D01*
X91083D01*
X183583D01*
Y174134D02*
Y184134D01*
X83583Y174134D02*
X183583D01*
X83583D02*
Y184134D01*
X91083D01*
X183583D01*
X191220Y164291D02*
Y174291D01*
X241220D01*
X191220Y164291D02*
X241220D01*
Y174291D01*
X87008Y58661D02*
X98032D01*
X98032Y47638D02*
Y58661D01*
X87008Y47638D02*
X98032D01*
X87008Y47638D02*
Y58661D01*
X133858Y23031D02*
Y26181D01*
X127953Y23031D02*
Y26181D01*
X133858Y46654D02*
Y49803D01*
X127953Y46654D02*
Y49803D01*
X170276Y32874D02*
Y36024D01*
X164370Y32874D02*
Y36024D01*
X170276Y51575D02*
Y54724D01*
X164370Y51575D02*
Y54724D01*
X144488Y40945D02*
Y44488D01*
X154724D01*
X144488Y26378D02*
Y29921D01*
Y26378D02*
X154724D01*
X270079Y135433D02*
X281102D01*
X281102Y124409D02*
Y135433D01*
X270079Y124409D02*
X281102D01*
X270079Y124409D02*
Y135433D01*
Y115748D02*
X281102D01*
X281102Y104724D02*
Y115748D01*
X270079Y104724D02*
X281102D01*
X270079Y104724D02*
Y115748D01*
Y56693D02*
X281102D01*
X281102Y45669D02*
Y56693D01*
X270079Y45669D02*
X281102D01*
X270079Y45669D02*
Y56693D01*
Y76378D02*
X281102D01*
X281102Y65354D02*
Y76378D01*
X270079Y65354D02*
X281102D01*
X270079Y65354D02*
Y76378D01*
Y96063D02*
X281102D01*
X281102Y85039D02*
Y96063D01*
X270079Y85039D02*
X281102D01*
X270079Y85039D02*
Y96063D01*
D37*
X133366Y155709D02*
X132628Y156135D01*
Y155282D01*
X133366Y155709D01*
X41398Y24370D02*
X40659Y24796D01*
Y23944D01*
X41398Y24370D01*
X93012Y61221D02*
X92274Y61647D01*
Y60794D01*
X93012Y61221D01*
X157776Y26181D02*
X157037Y26607D01*
Y25755D01*
X157776Y26181D01*
X276083Y137992D02*
X275344Y138418D01*
Y137566D01*
X276083Y137992D01*
Y118307D02*
X275344Y118733D01*
Y117881D01*
X276083Y118307D01*
Y59252D02*
X275344Y59678D01*
Y58826D01*
X276083Y59252D01*
Y78937D02*
X275344Y79363D01*
Y78511D01*
X276083Y78937D01*
Y98622D02*
X275344Y99048D01*
Y98196D01*
X276083Y98622D01*
D38*
X45866Y32874D02*
X45421Y33797D01*
X44422Y34025D01*
X43621Y33386D01*
Y32362D01*
X44422Y31723D01*
X45421Y31951D01*
X45866Y32874D01*
D39*
X265748Y235433D02*
Y244882D01*
X293307Y235433D02*
Y244882D01*
X279528Y228346D02*
X293307D01*
X279528Y251969D02*
X293307D01*
X265748D02*
X279528D01*
X265748Y228346D02*
X279528D01*
X265748Y274803D02*
Y284252D01*
X293307Y274803D02*
Y284252D01*
X279528Y267717D02*
X293307D01*
X279528Y291339D02*
X293307D01*
X265748D02*
X279528D01*
X265748Y267717D02*
X279528D01*
X265748Y314173D02*
Y323622D01*
X293307Y314173D02*
Y323622D01*
X279528Y307087D02*
X293307D01*
X279528Y330709D02*
X293307D01*
X265748D02*
X279528D01*
X265748Y307087D02*
X279528D01*
X246063Y231535D02*
Y341535D01*
X29528Y231535D02*
Y341535D01*
X246063Y279528D02*
Y341535D01*
X29528Y279528D02*
Y341535D01*
X246063Y250984D02*
Y308071D01*
X29528Y250984D02*
X246063D01*
X29528D02*
Y308071D01*
X246063D01*
X29528Y225512D02*
Y347559D01*
X246063Y225394D02*
Y347441D01*
X29528Y225512D02*
X245945D01*
X246063Y225394D01*
X29528Y347559D02*
X245945D01*
X246063Y347441D01*
X234314Y48305D02*
X233314Y49305D01*
X231315D01*
X230315Y48305D01*
Y44307D01*
X231315Y43307D01*
X233314D01*
X234314Y44307D01*
X236313Y43307D02*
X238312D01*
X237313D01*
Y49305D01*
X236313Y48305D01*
X189038Y10904D02*
X188038Y11904D01*
X186039D01*
X185039Y10904D01*
Y9904D01*
X186039Y8905D01*
X188038D01*
X189038Y7905D01*
Y6905D01*
X188038Y5906D01*
X186039D01*
X185039Y6905D01*
X191037Y5906D02*
X193037D01*
X192037D01*
Y11904D01*
X191037D01*
X196036Y5906D02*
X198035D01*
X197036D01*
Y9904D01*
X196036D01*
X205033Y11904D02*
Y5906D01*
X202034D01*
X201034Y6905D01*
Y8905D01*
X202034Y9904D01*
X205033D01*
X210031Y5906D02*
X208032D01*
X207032Y6905D01*
Y8905D01*
X208032Y9904D01*
X210031D01*
X211031Y8905D01*
Y7905D01*
X207032D01*
X213030Y9904D02*
Y5906D01*
Y7905D01*
X214030Y8905D01*
X215030Y9904D01*
X216029D01*
X219028Y4906D02*
X223027D01*
X225026Y11904D02*
Y7905D01*
X227026Y5906D01*
X229025Y7905D01*
Y11904D01*
X231025Y10904D02*
X232024Y11904D01*
X234023D01*
X235023Y10904D01*
Y6905D01*
X234023Y5906D01*
X232024D01*
X231025Y6905D01*
Y10904D01*
X237023Y5906D02*
X239022D01*
X238022D01*
Y11904D01*
X237023Y10904D01*
X248019Y5906D02*
Y9904D01*
X249019D01*
X250018Y8905D01*
Y5906D01*
Y8905D01*
X251018Y9904D01*
X252018Y8905D01*
Y5906D01*
X255017Y9904D02*
X257016D01*
X258016Y8905D01*
Y5906D01*
X255017D01*
X254017Y6905D01*
X255017Y7905D01*
X258016D01*
X260015Y9904D02*
X264014Y5906D01*
X262015Y7905D01*
X264014Y9904D01*
X260015Y5906D01*
X266013Y9904D02*
Y5906D01*
Y7905D01*
X267013Y8905D01*
X268012Y9904D01*
X269012D01*
X275010Y5906D02*
X273011D01*
X272011Y6905D01*
Y8905D01*
X273011Y9904D01*
X275010D01*
X276010Y8905D01*
Y7905D01*
X272011D01*
X278009Y9904D02*
X282008D01*
X278009Y5906D01*
X282008D01*
X114173Y143701D02*
Y149699D01*
X117172D01*
X118172Y148699D01*
Y146700D01*
X117172Y145700D01*
X114173D01*
X124170Y149699D02*
X120171D01*
Y146700D01*
X122171Y147699D01*
X123170D01*
X124170Y146700D01*
Y144701D01*
X123170Y143701D01*
X121171D01*
X120171Y144701D01*
X31403Y33465D02*
Y35464D01*
Y34464D01*
X37402D01*
Y33465D01*
Y35464D01*
X32403Y42462D02*
X31403Y41462D01*
Y39463D01*
X32403Y38463D01*
X36402D01*
X37402Y39463D01*
Y41462D01*
X36402Y42462D01*
X37402Y44461D02*
Y46460D01*
Y45461D01*
X31403D01*
X32403Y44461D01*
X261811Y336614D02*
Y342612D01*
X264810D01*
X265810Y341613D01*
Y339613D01*
X264810Y338614D01*
X261811D01*
X263810D02*
X265810Y336614D01*
X271808D02*
X267809D01*
X271808Y340613D01*
Y341613D01*
X270808Y342612D01*
X268809D01*
X267809Y341613D01*
X261811Y297244D02*
Y303242D01*
X264810D01*
X265810Y302242D01*
Y300243D01*
X264810Y299243D01*
X261811D01*
X263810D02*
X265810Y297244D01*
X267809Y302242D02*
X268809Y303242D01*
X270808D01*
X271808Y302242D01*
Y301243D01*
X270808Y300243D01*
X269808D01*
X270808D01*
X271808Y299243D01*
Y298244D01*
X270808Y297244D01*
X268809D01*
X267809Y298244D01*
X261811Y257874D02*
Y263872D01*
X264810D01*
X265810Y262872D01*
Y260873D01*
X264810Y259873D01*
X261811D01*
X263810D02*
X265810Y257874D01*
X270808D02*
Y263872D01*
X267809Y260873D01*
X271808D01*
X303057Y232283D02*
X309055D01*
Y235282D01*
X308055Y236282D01*
X307056D01*
X306056Y235282D01*
Y232283D01*
Y235282D01*
X305056Y236282D01*
X304057D01*
X303057Y235282D01*
Y232283D01*
Y238281D02*
Y242280D01*
Y240281D01*
X309055D01*
X304057Y244280D02*
X303057Y245279D01*
Y247279D01*
X304057Y248278D01*
X305056D01*
X306056Y247279D01*
Y246279D01*
Y247279D01*
X307056Y248278D01*
X308055D01*
X309055Y247279D01*
Y245279D01*
X308055Y244280D01*
X303057Y271654D02*
X309055D01*
Y274653D01*
X308055Y275652D01*
X307056D01*
X306056Y274653D01*
Y271654D01*
Y274653D01*
X305056Y275652D01*
X304057D01*
X303057Y274653D01*
Y271654D01*
Y277652D02*
Y281650D01*
Y279651D01*
X309055D01*
Y287648D02*
Y283650D01*
X305056Y287648D01*
X304057D01*
X303057Y286649D01*
Y284649D01*
X304057Y283650D01*
X303057Y312992D02*
X309055D01*
Y315991D01*
X308055Y316991D01*
X307056D01*
X306056Y315991D01*
Y312992D01*
Y315991D01*
X305056Y316991D01*
X304057D01*
X303057Y315991D01*
Y312992D01*
Y318990D02*
Y322989D01*
Y320989D01*
X309055D01*
Y324988D02*
Y326988D01*
Y325988D01*
X303057D01*
X304057Y324988D01*
X192975Y359329D02*
X191975Y360329D01*
X189976D01*
X188976Y359329D01*
Y355330D01*
X189976Y354331D01*
X191975D01*
X192975Y355330D01*
X197974Y360329D02*
X195974D01*
X194974Y359329D01*
Y355330D01*
X195974Y354331D01*
X197974D01*
X198973Y355330D01*
Y359329D01*
X197974Y360329D01*
X200973Y354331D02*
Y360329D01*
X204971Y354331D01*
Y360329D01*
X209970Y354331D02*
Y360329D01*
X206971Y357330D01*
X210969D01*
X88236Y192518D02*
X87236Y193518D01*
X85237D01*
X84237Y192518D01*
Y188519D01*
X85237Y187520D01*
X87236D01*
X88236Y188519D01*
X93234Y193518D02*
X91235D01*
X90235Y192518D01*
Y188519D01*
X91235Y187520D01*
X93234D01*
X94234Y188519D01*
Y192518D01*
X93234Y193518D01*
X96233Y187520D02*
Y193518D01*
X100232Y187520D01*
Y193518D01*
X106230D02*
X102231D01*
Y190519D01*
X104230Y191518D01*
X105230D01*
X106230Y190519D01*
Y188519D01*
X105230Y187520D01*
X103231D01*
X102231Y188519D01*
X1179Y138221D02*
Y144219D01*
X3178Y142220D01*
X5177Y144219D01*
Y138221D01*
X8177D02*
X10176D01*
X11175Y139221D01*
Y141220D01*
X10176Y142220D01*
X8177D01*
X7177Y141220D01*
Y139221D01*
X8177Y138221D01*
X17174Y144219D02*
Y138221D01*
X14175D01*
X13175Y139221D01*
Y141220D01*
X14175Y142220D01*
X17174D01*
X19173Y138221D02*
X21172D01*
X20173D01*
Y144219D01*
X19173Y143220D01*
X137795Y59148D02*
X139795D01*
X138795D01*
Y53150D01*
X137795D01*
X139795D01*
X146792Y58148D02*
X145793Y59148D01*
X143793D01*
X142794Y58148D01*
Y54149D01*
X143793Y53150D01*
X145793D01*
X146792Y54149D01*
X152790Y53150D02*
X148792D01*
X152790Y57148D01*
Y58148D01*
X151791Y59148D01*
X149791D01*
X148792Y58148D01*
X30055Y351028D02*
Y357026D01*
X32054Y355026D01*
X34054Y357026D01*
Y351028D01*
X37053D02*
X39052D01*
X40052Y352027D01*
Y354027D01*
X39052Y355026D01*
X37053D01*
X36053Y354027D01*
Y352027D01*
X37053Y351028D01*
X46050Y357026D02*
Y351028D01*
X43051D01*
X42051Y352027D01*
Y354027D01*
X43051Y355026D01*
X46050D01*
X48049Y356026D02*
X49049Y357026D01*
X51048D01*
X52048Y356026D01*
Y355026D01*
X51048Y354027D01*
X50049D01*
X51048D01*
X52048Y353027D01*
Y352027D01*
X51048Y351028D01*
X49049D01*
X48049Y352027D01*
X179196Y36494D02*
X178196Y37494D01*
X176197D01*
X175197Y36494D01*
Y32496D01*
X176197Y31496D01*
X178196D01*
X179196Y32496D01*
X181195Y31496D02*
X183194D01*
X182195D01*
Y37494D01*
X181195Y36494D01*
X190192Y31496D02*
X186193D01*
X190192Y35495D01*
Y36494D01*
X189192Y37494D01*
X187193D01*
X186193Y36494D01*
X179196Y56179D02*
X178196Y57179D01*
X176197D01*
X175197Y56179D01*
Y52181D01*
X176197Y51181D01*
X178196D01*
X179196Y52181D01*
X181195Y51181D02*
X183194D01*
X182195D01*
Y57179D01*
X181195Y56179D01*
X186193D02*
X187193Y57179D01*
X189192D01*
X190192Y56179D01*
Y55180D01*
X189192Y54180D01*
X188193D01*
X189192D01*
X190192Y53180D01*
Y52181D01*
X189192Y51181D01*
X187193D01*
X186193Y52181D01*
X195867Y182653D02*
X194868Y183652D01*
X192868D01*
X191868Y182653D01*
Y178654D01*
X192868Y177654D01*
X194868D01*
X195867Y178654D01*
X200866Y183652D02*
X198866D01*
X197867Y182653D01*
Y178654D01*
X198866Y177654D01*
X200866D01*
X201865Y178654D01*
Y182653D01*
X200866Y183652D01*
X203865Y177654D02*
Y183652D01*
X207863Y177654D01*
Y183652D01*
X209863Y182653D02*
X210862Y183652D01*
X212862D01*
X213861Y182653D01*
Y181653D01*
X212862Y180653D01*
X211862D01*
X212862D01*
X213861Y179654D01*
Y178654D01*
X212862Y177654D01*
X210862D01*
X209863Y178654D01*
X267717Y66929D02*
X261719D01*
Y69928D01*
X262718Y70928D01*
X264718D01*
X265717Y69928D01*
Y66929D01*
X267717Y72927D02*
Y74927D01*
Y73927D01*
X261719D01*
X262718Y72927D01*
X267717Y85630D02*
X261719D01*
Y88629D01*
X262718Y89629D01*
X264718D01*
X265717Y88629D01*
Y85630D01*
X267717Y95627D02*
Y91628D01*
X263718Y95627D01*
X262718D01*
X261719Y94627D01*
Y92628D01*
X262718Y91628D01*
X267717Y105315D02*
X261719D01*
Y108314D01*
X262718Y109314D01*
X264718D01*
X265717Y108314D01*
Y105315D01*
X262718Y111313D02*
X261719Y112313D01*
Y114312D01*
X262718Y115312D01*
X263718D01*
X264718Y114312D01*
Y113312D01*
Y114312D01*
X265717Y115312D01*
X266717D01*
X267717Y114312D01*
Y112313D01*
X266717Y111313D01*
X267717Y125000D02*
X261719D01*
Y127999D01*
X262718Y128999D01*
X264718D01*
X265717Y127999D01*
Y125000D01*
X267717Y133997D02*
X261719D01*
X264718Y130998D01*
Y134997D01*
X179735Y138146D02*
Y144144D01*
X181734Y142144D01*
X183733Y144144D01*
Y138146D01*
X186732D02*
X188732D01*
X189731Y139145D01*
Y141145D01*
X188732Y142144D01*
X186732D01*
X185733Y141145D01*
Y139145D01*
X186732Y138146D01*
X195729Y144144D02*
Y138146D01*
X192730D01*
X191731Y139145D01*
Y141145D01*
X192730Y142144D01*
X195729D01*
X201728Y138146D02*
X197729D01*
X201728Y142144D01*
Y143144D01*
X200728Y144144D01*
X198729D01*
X197729Y143144D01*
X267717Y46260D02*
X261719D01*
Y49259D01*
X262718Y50259D01*
X264718D01*
X265717Y49259D01*
Y46260D01*
X261719Y56257D02*
X262718Y54257D01*
X264718Y52258D01*
X266717D01*
X267717Y53258D01*
Y55257D01*
X266717Y56257D01*
X265717D01*
X264718Y55257D01*
Y52258D01*
X102362Y55118D02*
Y61116D01*
X105361D01*
X106361Y60116D01*
Y58117D01*
X105361Y57117D01*
X102362D01*
X108360Y61116D02*
X112359D01*
Y60116D01*
X108360Y56118D01*
Y55118D01*
X115157Y31496D02*
X121156D01*
Y28497D01*
X120156Y27497D01*
X118157D01*
X117157Y28497D01*
Y31496D01*
Y29497D02*
X115157Y27497D01*
Y25498D02*
Y23499D01*
Y24498D01*
X121156D01*
X120156Y25498D01*
X115157Y16501D02*
Y20500D01*
X119156Y16501D01*
X120156D01*
X121156Y17501D01*
Y19500D01*
X120156Y20500D01*
X116142Y55118D02*
X122140D01*
Y52119D01*
X121140Y51119D01*
X119141D01*
X118141Y52119D01*
Y55118D01*
Y53119D02*
X116142Y51119D01*
Y49120D02*
Y47121D01*
Y48120D01*
X122140D01*
X121140Y49120D01*
Y44122D02*
X122140Y43122D01*
Y41123D01*
X121140Y40123D01*
X120140D01*
X119141Y41123D01*
Y42122D01*
Y41123D01*
X118141Y40123D01*
X117141D01*
X116142Y41123D01*
Y43122D01*
X117141Y44122D01*
D40*
X258937Y74921D02*
Y134921D01*
X178937Y74921D02*
X258937D01*
X178937D02*
Y134921D01*
X258937D01*
X512D02*
X170512D01*
X512Y64921D02*
Y134921D01*
Y64921D02*
X170512D01*
Y134921D01*
M02*
