G04 Layer_Color=32896*
%FSLAX25Y25*%
%MOIN*%
G70*
G01*
G75*
%ADD36C,0.00787*%
%ADD37C,0.00984*%
%ADD39C,0.01000*%
D36*
X233268Y153937D02*
Y157087D01*
X239173Y153937D02*
Y157087D01*
X219488Y153937D02*
Y157087D01*
X213583Y153937D02*
Y157087D01*
X223425Y153937D02*
Y157087D01*
X229331Y153937D02*
Y157087D01*
X258268Y63976D02*
X261417D01*
X258268Y69882D02*
X261417D01*
X26575Y41732D02*
Y44882D01*
X32480Y41732D02*
Y44882D01*
X45276Y245472D02*
Y248622D01*
X39370Y245472D02*
Y248622D01*
X72835Y253346D02*
Y256496D01*
X66929Y253346D02*
Y256496D01*
X68701Y233465D02*
X71850D01*
Y237008D01*
X60039Y233465D02*
X63189D01*
X60039D02*
Y237008D01*
X220866Y178150D02*
X224016D01*
X220866Y184055D02*
X224016D01*
X146457Y49016D02*
X152756D01*
X146457Y61221D02*
X152756D01*
X101083Y34547D02*
Y39862D01*
X111516Y34547D02*
Y39862D01*
X109744D02*
X111529D01*
X101083D02*
X102854D01*
X123031Y34154D02*
Y37303D01*
X117126Y34154D02*
Y37303D01*
D37*
X63090Y230906D02*
X62352Y231332D01*
Y230479D01*
X63090Y230906D01*
X114567Y31004D02*
X113829Y31430D01*
Y30578D01*
X114567Y31004D01*
D39*
X252146Y154605D02*
X253146Y155604D01*
X255145D01*
X256145Y154605D01*
Y150606D01*
X255145Y149606D01*
X253146D01*
X252146Y150606D01*
X250147Y149606D02*
X248147D01*
X249147D01*
Y155604D01*
X250147Y154605D01*
X245148Y149606D02*
X243149D01*
X244149D01*
Y155604D01*
X245148Y154605D01*
X208661Y153543D02*
Y159541D01*
X205662D01*
X204663Y158542D01*
Y156542D01*
X205662Y155543D01*
X208661D01*
X206662D02*
X204663Y153543D01*
X202663D02*
X200664D01*
X201664D01*
Y159541D01*
X202663Y158542D01*
X197665D02*
X196665Y159541D01*
X194666D01*
X193666Y158542D01*
Y154543D01*
X194666Y153543D01*
X196665D01*
X197665Y154543D01*
Y158542D01*
X232283Y139764D02*
Y145762D01*
X229284D01*
X228285Y144762D01*
Y142763D01*
X229284Y141763D01*
X232283D01*
X230284D02*
X228285Y139764D01*
X226285Y140763D02*
X225286Y139764D01*
X223286D01*
X222287Y140763D01*
Y144762D01*
X223286Y145762D01*
X225286D01*
X226285Y144762D01*
Y143763D01*
X225286Y142763D01*
X222287D01*
X244033Y69959D02*
X245033Y70959D01*
X247032D01*
X248031Y69959D01*
Y65960D01*
X247032Y64961D01*
X245033D01*
X244033Y65960D01*
X242033Y64961D02*
X240034D01*
X241034D01*
Y70959D01*
X242033Y69959D01*
X234036Y64961D02*
Y70959D01*
X237035Y67960D01*
X233036D01*
X23622Y49213D02*
X17624D01*
Y46214D01*
X18624Y45214D01*
X20623D01*
X21623Y46214D01*
Y49213D01*
Y47213D02*
X23622Y45214D01*
Y43214D02*
Y41215D01*
Y42215D01*
X17624D01*
X18624Y43214D01*
X35433Y251969D02*
X29435D01*
Y248970D01*
X30435Y247970D01*
X32434D01*
X33434Y248970D01*
Y251969D01*
Y249969D02*
X35433Y247970D01*
X29435Y245970D02*
Y241972D01*
X30435D01*
X34433Y245970D01*
X35433D01*
X82677Y259842D02*
X76679D01*
Y256843D01*
X77679Y255844D01*
X79678D01*
X80678Y256843D01*
Y259842D01*
Y257843D02*
X82677Y255844D01*
X77679Y253844D02*
X76679Y252845D01*
Y250845D01*
X77679Y249846D01*
X78679D01*
X79678Y250845D01*
X80678Y249846D01*
X81678D01*
X82677Y250845D01*
Y252845D01*
X81678Y253844D01*
X80678D01*
X79678Y252845D01*
X78679Y253844D01*
X77679D01*
X79678Y252845D02*
Y250845D01*
X78679Y237220D02*
Y241219D01*
X79678Y242218D01*
X81678D01*
X82677Y241219D01*
Y237220D01*
X81678Y236221D01*
X79678D01*
X80678Y238220D02*
X78679Y236221D01*
X79678D02*
X78679Y237220D01*
X76679Y236221D02*
X74680D01*
X75679D01*
Y242218D01*
X76679Y241219D01*
X155452Y70194D02*
X156451Y71194D01*
X158451D01*
X159450Y70194D01*
Y66196D01*
X158451Y65196D01*
X156451D01*
X155452Y66196D01*
X149454Y65196D02*
X153452D01*
X149454Y69195D01*
Y70194D01*
X150453Y71194D01*
X152453D01*
X153452Y70194D01*
X229518Y188028D02*
Y194026D01*
X226519D01*
X225519Y193026D01*
Y191027D01*
X226519Y190027D01*
X229518D01*
X227519D02*
X225519Y188028D01*
X223520D02*
X221521D01*
X222520D01*
Y194026D01*
X223520Y193026D01*
X218522Y188028D02*
X216522D01*
X217522D01*
Y194026D01*
X218522Y193026D01*
X116142Y9843D02*
X122140D01*
Y12842D01*
X121140Y13841D01*
X119141D01*
X118141Y12842D01*
Y9843D01*
Y11842D02*
X116142Y13841D01*
Y15841D02*
Y17840D01*
Y16840D01*
X122140D01*
X121140Y15841D01*
X116142Y23838D02*
X122140D01*
X119141Y20839D01*
Y24838D01*
X110236Y51274D02*
Y45276D01*
X107237D01*
X106237Y46275D01*
Y50274D01*
X107237Y51274D01*
X110236D01*
X104238Y45276D02*
X102239D01*
X103238D01*
Y51274D01*
X104238Y50274D01*
M02*
