M48
;Layer_Color=9474304
;FILE_FORMAT=2:5
INCH,LZ
;TYPE=PLATED
T1F00S00C0.03150
T2F00S00C0.03543
T3F00S00C0.08268
%
T01
X003937Y0088583
X0130905Y0036417
X015748Y0048228
X0175197Y0088583
X0165354Y0110236
X025Y0057087
X025Y0037402
X0246063Y0160433
X0179134Y0158465
X0158465Y0167323
X0208661Y0240158
X0222795Y0231535
X0232795
X0148622Y0161417
X011811Y0169291
X0102362
X0096457Y015748
Y0149606
X0031496Y0145669
X0042795Y0231535
X0052795
X005315Y0246063
X0059055Y0322835
X0062795Y0341535
X0052795
X0042795
X0072795
X0082795
X0092795
X0102795
X0112795
X0122795
X0132795
X0142795
X0138583Y0358268
X0128583
X0118583
X0108583
X0098583
X0088583
X0148583
X0158583
X0168583
X0178583
X0182795Y0341535
X0192795
X0202795
X0212795
X0222795
X0232795
X0253937Y0350394
X0265748Y0358268
X0208661Y0322835
X0173228Y0330709
X0172795Y0341535
X0162795
X0152795
T02
X0046024Y002437
X0056024
X0066024
X0076024
Y005437
X0066024
X0056024
X0046024
X0045512Y0069921
X0035512
X0025512
X0015512
X0055512
X0065512
X0075512
X0085512
X0095512
X0105512
X0115512
X0125512
X0135512
X0145512
X009252Y005315
Y0041339
X0155512Y0069921
X0183937Y0079921
X0193937
X0203937
X0213937
X0223937
X0233937
X0243937
X0253937
X027559Y0070866
Y0051181
Y0090551
Y0110236
Y0129921
Y0148622
X0253937Y0129921
X0243937
X0233937
X0223937
X0213937
X0203937
X0193937
X0183937
X0155512
X0158583Y0179134
X0168583
X0178583
X0196221Y0169291
X0206221
X021622
X022622
X0236221
X0148583Y0179134
X0138583
X0128583
X0118583
X0108583
X0098583
X0088583
X0085512Y0129921
X0095512
X0105512
X0115512
X0125512
X0135512
X0145512
X0132874Y0147638
X0075512Y0129921
X0065512
X0055512
X0045512
X0035512
X0025512
X0015512
T03
X0009843Y0031496
X0305118
Y0169291
Y021063
X0009843
Y0169291
Y0348425
X0305118
M30
